<svg xmlns="http://www.w3.org/2000/svg" viewBox="0 0 64 64" fill="none">
  <path fill="#0f0f0f" d="M36.4 7.1c-3.5 1.2-7 3.8-9.8 7.6l-6.3 8.5c-1 1.4-.7 3.3.6 4.4l3.5 2.8c1 .8 1.2 2.2.4 3.2l-3.3 4.2a2.3 2.3 0 0 0 .2 3l4 4c.8.8 2.2.8 3-.2l4.1-3.3c1-.8 2.4-.6 3.2.4l2.8 3.5c1 1.3 3 1.6 4.3.6l8.5-6.3c3.8-2.8 6.4-6.3 7.6-9.8 1.2-3.7.7-7.3-1.7-9.7-2.4-2.3-6-2.9-9.7-1.7-3.5 1.2-7 3.8-9.8 7.6l-.2.2a1.5 1.5 0 0 1-2.1.1l-5-5c-.7-.6-.7-1.6 0-2.2l.1-.1c3.8-2.9 6.4-6.4 7.6-9.9 1.2-3.7.7-7.3-1.7-9.6-2.4-2.4-6-2.9-9.7-1.7Z"/>
  <circle cx="43.5" cy="26.5" r="4.5" fill="#fff"/>
  <path fill="#0f0f0f" d="M12.5 43.3c-1 .6-2.1 1.7-2.8 3.3-.5 1.1-.8 2.3-1 3.4l-.7 3.2a1.7 1.7 0 0 0 2 2l3.3-.7c1.2-.3 2.3-.6 3.4-1 1.6-.6 2.7-1.7 3.3-2.8 1-2 .8-4-.6-5.3-1.3-1.4-3.3-1.6-5.3-.7Z"/>
</svg>
